<svg width="481" height="502" viewBox="0 0 481 502" fill="none" xmlns="http://www.w3.org/2000/svg">
<path d="M221.344 0.0138814C223.676 0.0256109 226.007 0.0138629 228.339 8.91295e-05C237.321 -0.00887917 245.787 0.657916 254.582 2.46997C255.831 2.70136 257.081 2.93248 258.33 3.16312C282.418 8.02392 305.215 16.8431 325.56 30.7166C325.991 31.0089 326.421 31.3013 326.865 31.6025C332.608 35.5291 337.85 39.7232 342.943 44.4777C343.935 45.3416 344.931 46.2019 345.93 47.0579C351.585 52.0097 356.373 57.4329 361.049 63.3088C361.675 64.0695 362.301 64.8296 362.928 65.5891C370.872 75.3157 377.519 85.9437 382.818 97.3287C383.285 98.3326 383.758 99.3338 384.237 100.333C396.596 126.171 400.794 155.23 396.539 183.538C396.461 184.079 396.384 184.62 396.304 185.177C395.206 192.741 393.736 200.128 391.469 207.439C391.285 208.033 391.102 208.627 390.913 209.239C386.127 224.425 379.77 239.348 370.465 252.344C369.947 253.072 369.429 253.8 368.895 254.55C356.368 271.667 341.832 285.005 324.112 296.524C325.139 300.007 326.65 303.037 328.457 306.166C328.879 306.907 328.879 306.907 329.309 307.663C330.886 310.425 332.494 313.167 334.118 315.901C334.45 316.461 334.782 317.02 335.124 317.597C335.772 318.684 336.422 319.77 337.076 320.853C339.321 324.613 339.321 324.613 339.321 326.219C339.73 326.03 340.138 325.84 340.559 325.644C342.438 324.774 344.32 323.913 346.202 323.051C346.844 322.752 347.487 322.453 348.148 322.145C354.671 319.172 361.41 316.791 368.601 318.725C373.181 320.518 376.248 323.26 378.429 327.682C380.289 332.335 380.696 336.857 380.676 341.854C380.674 342.362 380.673 342.87 380.672 343.394C380.668 345.002 380.659 346.611 380.65 348.219C380.646 349.316 380.643 350.413 380.64 351.51C380.633 354.185 380.619 356.86 380.605 359.536C388.492 362.046 388.492 362.046 396.539 364.606C396.778 363.172 397.017 361.738 397.263 360.26C397.742 358.807 397.742 358.807 398.29 357.53C398.494 357.054 398.698 356.578 398.908 356.088C399.127 355.598 399.346 355.107 399.572 354.602C399.799 354.091 400.026 353.58 400.261 353.053C403.171 346.661 406.662 340.351 413.197 337.084C420.056 336.324 424.941 337.436 430.384 341.683C434.03 344.643 437.713 347.645 440.838 351.159C441.277 351.533 441.716 351.907 442.168 352.293C444.345 351.997 445.774 351.216 447.515 349.914C447.957 349.589 448.398 349.265 448.853 348.931C449.306 348.591 449.759 348.252 450.225 347.902C455.016 344.326 455.016 344.326 456.653 344.326C456.773 343.475 456.892 342.623 457.015 341.746C457.976 337.778 460.687 335.769 463.896 333.462C466.836 331.992 470.38 332.307 473.478 333.208C476.511 334.539 478.366 335.947 479.978 338.968C481.312 342.989 480.982 347.332 480.916 351.524C480.912 352.038 480.907 352.553 480.902 353.083C480.566 384.352 469.17 414.58 447.238 437.033C446.668 437.647 446.099 438.262 445.512 438.895C429.066 456.209 405.893 465.465 382.778 469.625C382.298 469.715 381.818 469.806 381.323 469.899C372.47 471.543 363.932 472.128 354.938 472.024C353.692 472.017 352.446 472.01 351.2 472.003C342.831 471.931 334.573 471.575 326.284 470.349C325.466 470.237 324.647 470.124 323.803 470.007C317.745 469.091 311.507 468.031 306.005 465.28C306.005 469.582 306.005 473.884 306.005 478.316C308.011 478.299 308.011 478.299 310.058 478.282C314.487 478.247 318.915 478.222 323.344 478.204C326.028 478.193 328.712 478.177 331.396 478.153C333.989 478.129 336.581 478.116 339.173 478.11C340.16 478.106 341.147 478.099 342.134 478.087C343.521 478.071 344.907 478.07 346.294 478.07C347.082 478.065 347.87 478.06 348.682 478.055C351.804 478.421 354.288 479.475 356.472 481.765C358.74 485.42 359.432 487.776 358.877 492.078C357.633 495.48 356.112 497.347 353.082 499.32C349.663 500.723 346.549 500.976 342.9 500.955C342.322 500.958 341.744 500.96 341.148 500.963C339.207 500.97 337.266 500.966 335.325 500.963C333.921 500.965 332.517 500.969 331.112 500.973C327.251 500.981 323.389 500.981 319.528 500.98C315.364 500.979 311.201 500.987 307.037 500.994C298.88 501.006 290.722 501.01 282.564 501.011C275.935 501.012 269.306 501.015 262.677 501.019C246.949 501.03 231.22 501.039 215.492 501.038C214.989 501.038 214.486 501.038 213.967 501.038C211.418 501.038 208.869 501.038 206.319 501.038C205.813 501.037 205.307 501.037 204.785 501.037C203.761 501.037 202.737 501.037 201.713 501.037C185.779 501.036 169.845 501.047 153.911 501.067C136.011 501.089 118.11 501.102 100.21 501.1C90.7317 501.1 81.2531 501.104 71.7745 501.12C63.7058 501.133 55.6371 501.136 47.5684 501.126C43.4503 501.121 39.3323 501.121 35.2142 501.134C31.4458 501.145 27.6776 501.143 23.9093 501.13C22.5446 501.128 21.1799 501.131 19.8153 501.139C17.9622 501.149 16.1101 501.142 14.2571 501.129C13.7255 501.137 13.194 501.144 12.6463 501.151C8.67537 501.096 6.46841 500.04 3.25922 497.872C1.16097 495.369 0.195231 492.379 0 489.135C0.406101 485.937 1.1046 483.633 3.25922 481.214C6.40736 478.778 8.41787 477.955 12.3893 477.968C13.8152 477.962 13.8152 477.962 15.2698 477.956C16.3144 477.966 17.359 477.977 18.4035 477.988C19.5102 477.988 20.6168 477.988 21.7235 477.986C24.7206 477.985 27.7174 478.002 30.7145 478.023C33.8492 478.041 36.984 478.043 40.1188 478.046C46.0517 478.055 51.9845 478.079 57.9174 478.108C65.9368 478.146 73.9562 478.162 81.9756 478.179C94.6062 478.206 107.236 478.264 119.867 478.316C119.628 454.894 119.389 431.471 119.143 407.338C114.123 407.099 109.104 406.86 103.933 406.614C90.4458 404.654 78.1607 398.11 69.8922 387.058C62.829 376.71 60.5348 365.93 62.2591 353.51C64.6392 342.785 71.1366 334.066 80.2697 328.053C83.6778 326.1 87.194 324.622 90.8961 323.322C91.4049 323.143 91.9138 322.964 92.438 322.779C98.2 321.155 104.524 321.759 110.451 321.874C110.535 321.348 110.619 320.822 110.706 320.281C111.089 317.884 111.472 315.488 111.855 313.092C111.987 312.265 112.119 311.438 112.255 310.585C112.383 309.782 112.512 308.979 112.644 308.152C112.762 307.416 112.879 306.681 113 305.922C113.351 303.754 113.71 301.588 114.073 299.421C113.32 298.966 112.568 298.51 111.792 298.041C105.97 294.482 100.411 290.866 95.2417 286.384C94.7086 285.931 94.1755 285.477 93.6263 285.009C91.7112 283.335 89.8458 281.615 87.999 279.866C87.5438 279.435 87.0885 279.005 86.6194 278.561C79.2603 271.542 72.7792 264.329 66.9951 255.965C66.5125 255.279 66.5125 255.279 66.0201 254.579C51.8971 234.45 44.1744 211.972 40.1971 187.884C40.0682 187.232 39.9393 186.581 39.8065 185.91C39.3807 182.883 39.3552 179.92 39.3512 176.867C39.3475 175.904 39.3475 175.904 39.3438 174.923C39.3402 173.565 39.3385 172.208 39.3386 170.85C39.337 168.813 39.3239 166.775 39.3101 164.738C39.2855 156.875 39.6922 149.302 40.9214 141.53C40.9973 141.046 41.0733 140.563 41.1516 140.064C45.4366 113.052 57.735 88.0134 74.9621 66.9302C75.2875 66.5302 75.6129 66.1303 75.9481 65.7182C84.4839 55.3037 93.8053 45.9485 104.657 37.9593C105.246 37.5186 105.836 37.0779 106.442 36.6239C115.858 29.8 126.013 24.0628 136.525 19.1282C137.017 18.8924 137.509 18.6565 138.016 18.4135C150.795 12.3127 164.095 8.06833 177.854 4.77858C178.683 4.57733 179.512 4.37607 180.366 4.16872C193.921 1.06497 207.458 -0.0689407 221.344 0.0138814Z" fill="#2DE1BB"/>
<path d="M221.344 0.0138814C223.676 0.0256109 226.007 0.0138629 228.339 8.91295e-05C237.321 -0.00887917 245.787 0.657916 254.582 2.46997C255.831 2.70136 257.081 2.93248 258.33 3.16312C282.418 8.02392 305.215 16.8431 325.56 30.7166C325.991 31.0089 326.421 31.3013 326.865 31.6025C332.608 35.5291 337.85 39.7232 342.943 44.4777C343.935 45.3416 344.931 46.2019 345.93 47.0579C351.585 52.0097 356.373 57.4329 361.049 63.3088C361.675 64.0695 362.301 64.8296 362.928 65.5891C370.872 75.3157 377.519 85.9437 382.818 97.3287C383.285 98.3326 383.758 99.3338 384.237 100.333C396.596 126.171 400.794 155.23 396.539 183.538C396.461 184.079 396.384 184.62 396.304 185.177C395.206 192.741 393.736 200.128 391.469 207.439C391.285 208.033 391.102 208.627 390.913 209.239C386.127 224.425 379.77 239.348 370.465 252.344C369.947 253.072 369.429 253.8 368.895 254.55C356.368 271.667 341.832 285.005 324.112 296.524C325.139 300.007 326.65 303.037 328.457 306.166C328.879 306.907 328.879 306.907 329.309 307.663C330.886 310.425 332.494 313.167 334.118 315.901C334.45 316.461 334.782 317.02 335.124 317.597C335.772 318.684 336.422 319.77 337.076 320.853C339.321 324.613 339.321 324.613 339.321 326.219C339.73 326.03 340.138 325.84 340.559 325.644C342.438 324.774 344.32 323.913 346.202 323.051C346.844 322.752 347.487 322.453 348.148 322.145C354.671 319.172 361.41 316.791 368.601 318.725C373.181 320.518 376.248 323.26 378.429 327.682C380.289 332.335 380.696 336.857 380.676 341.854C380.674 342.362 380.673 342.87 380.672 343.394C380.668 345.002 380.659 346.611 380.65 348.219C380.646 349.316 380.643 350.413 380.64 351.51C380.633 354.185 380.619 356.86 380.605 359.536C388.492 362.046 388.492 362.046 396.539 364.606C396.778 363.172 397.017 361.738 397.263 360.26C397.742 358.807 397.742 358.807 398.29 357.53C398.494 357.054 398.698 356.578 398.908 356.088C399.127 355.598 399.346 355.107 399.572 354.602C399.799 354.091 400.026 353.58 400.261 353.053C403.171 346.661 406.662 340.351 413.197 337.084C420.056 336.324 424.941 337.436 430.384 341.683C434.03 344.643 437.713 347.645 440.838 351.159C441.277 351.533 441.716 351.907 442.168 352.293C444.345 351.997 445.774 351.216 447.515 349.914C447.957 349.589 448.398 349.265 448.853 348.931C449.306 348.591 449.759 348.252 450.225 347.902C455.016 344.326 455.016 344.326 456.653 344.326C456.773 343.475 456.892 342.623 457.015 341.746C457.976 337.778 460.687 335.769 463.896 333.462C466.836 331.992 470.38 332.307 473.478 333.208C476.511 334.539 478.366 335.947 479.978 338.968C481.312 342.989 480.982 347.332 480.916 351.524C480.912 352.038 480.907 352.553 480.902 353.083C480.566 384.352 469.17 414.58 447.238 437.033C446.668 437.647 446.099 438.262 445.512 438.895C429.066 456.209 405.893 465.465 382.778 469.625C382.298 469.715 381.818 469.806 381.323 469.899C372.47 471.543 363.932 472.128 354.938 472.024C353.692 472.017 352.446 472.01 351.2 472.003C342.831 471.931 334.573 471.575 326.284 470.349C325.466 470.237 324.647 470.124 323.803 470.007C317.745 469.091 311.507 468.031 306.005 465.28C306.005 469.582 306.005 473.884 306.005 478.316C308.011 478.299 308.011 478.299 310.058 478.282C314.487 478.247 318.915 478.222 323.344 478.204C326.028 478.193 328.712 478.177 331.396 478.153C333.989 478.129 336.581 478.116 339.173 478.11C340.16 478.106 341.147 478.099 342.134 478.087C343.521 478.071 344.907 478.07 346.294 478.07C347.082 478.065 347.87 478.06 348.682 478.055C351.804 478.421 354.288 479.475 356.472 481.765C358.74 485.42 359.432 487.776 358.877 492.078C357.633 495.48 356.112 497.347 353.082 499.32C349.663 500.723 346.549 500.976 342.9 500.955C342.322 500.958 341.744 500.96 341.148 500.963C339.207 500.97 337.266 500.966 335.325 500.963C333.921 500.965 332.517 500.969 331.112 500.973C327.251 500.981 323.389 500.981 319.528 500.98C315.364 500.979 311.201 500.987 307.037 500.994C298.88 501.006 290.722 501.01 282.564 501.011C275.935 501.012 269.306 501.015 262.677 501.019C246.949 501.03 231.22 501.039 215.492 501.038C214.989 501.038 214.486 501.038 213.967 501.038C211.418 501.038 208.869 501.038 206.319 501.038C205.813 501.037 205.307 501.037 204.785 501.037C203.761 501.037 202.737 501.037 201.713 501.037C185.779 501.036 169.845 501.047 153.911 501.067C136.011 501.089 118.11 501.102 100.21 501.1C90.7317 501.1 81.2531 501.104 71.7745 501.12C63.7058 501.133 55.6371 501.136 47.5684 501.126C43.4503 501.121 39.3323 501.121 35.2142 501.134C31.4458 501.145 27.6776 501.143 23.9093 501.13C22.5446 501.128 21.1799 501.131 19.8153 501.139C17.9622 501.149 16.1101 501.142 14.2571 501.129C13.7255 501.137 13.194 501.144 12.6463 501.151C8.67537 501.096 6.46841 500.04 3.25922 497.872C1.16097 495.369 0.195231 492.379 0 489.135C0.406101 485.937 1.1046 483.633 3.25922 481.214C6.40736 478.778 8.41787 477.955 12.3893 477.968C13.8152 477.962 13.8152 477.962 15.2698 477.956C16.3144 477.966 17.359 477.977 18.4035 477.988C19.5102 477.988 20.6168 477.988 21.7235 477.986C24.7206 477.985 27.7174 478.002 30.7145 478.023C33.8492 478.041 36.984 478.043 40.1188 478.046C46.0517 478.055 51.9845 478.079 57.9174 478.108C65.9368 478.146 73.9562 478.162 81.9756 478.179C94.6062 478.206 107.236 478.264 119.867 478.316C119.628 454.894 119.389 431.471 119.143 407.338C114.123 407.099 109.104 406.86 103.933 406.614C90.4458 404.654 78.1607 398.11 69.8922 387.058C62.829 376.71 60.5348 365.93 62.2591 353.51C64.6392 342.785 71.1366 334.066 80.2697 328.053C83.6778 326.1 87.194 324.622 90.8961 323.322C91.4049 323.143 91.9138 322.964 92.438 322.779C98.2 321.155 104.524 321.759 110.451 321.874C110.535 321.348 110.619 320.822 110.706 320.281C111.089 317.884 111.472 315.488 111.855 313.092C111.987 312.265 112.119 311.438 112.255 310.585C112.383 309.782 112.512 308.979 112.644 308.152C112.762 307.416 112.879 306.681 113 305.922C113.351 303.754 113.71 301.588 114.073 299.421C113.32 298.966 112.568 298.51 111.792 298.041C105.97 294.482 100.411 290.866 95.2417 286.384C94.7086 285.931 94.1755 285.477 93.6263 285.009C91.7112 283.335 89.8458 281.615 87.999 279.866C87.5438 279.435 87.0885 279.005 86.6194 278.561C79.2603 271.542 72.7792 264.329 66.9951 255.965C66.5125 255.279 66.5125 255.279 66.0201 254.579C51.8971 234.45 44.1744 211.972 40.1971 187.884C40.0682 187.232 39.9393 186.581 39.8065 185.91C39.3807 182.883 39.3552 179.92 39.3512 176.867C39.3475 175.904 39.3475 175.904 39.3438 174.923C39.3402 173.565 39.3385 172.208 39.3386 170.85C39.337 168.813 39.3239 166.775 39.3101 164.738C39.2855 156.875 39.6922 149.302 40.9214 141.53C40.9973 141.046 41.0733 140.563 41.1516 140.064C45.4366 113.052 57.735 88.0134 74.9621 66.9302C75.2875 66.5302 75.6129 66.1303 75.9481 65.7182C84.4839 55.3037 93.8053 45.9485 104.657 37.9593C105.246 37.5186 105.836 37.0779 106.442 36.6239C115.858 29.8 126.013 24.0628 136.525 19.1282C137.017 18.8924 137.509 18.6565 138.016 18.4135C150.795 12.3127 164.095 8.06833 177.854 4.77858C178.683 4.57733 179.512 4.37607 180.366 4.16872C193.921 1.06497 207.458 -0.0689407 221.344 0.0138814ZM197.364 24.9224C196.625 25.0473 195.886 25.1721 195.124 25.3008C164.618 30.6433 135.164 41.9839 112.123 63.2183C110.58 64.6388 109.009 66.0154 107.419 67.3828C84.0162 87.8246 68.3724 117.39 64.098 148.049C63.8992 149.442 63.8992 149.442 63.6963 150.864C62.0559 166.354 62.517 182.915 66.2709 198.023C66.4627 198.832 66.4627 198.832 66.6585 199.658C70.765 216.578 79.008 232.011 89.4476 245.825C89.9433 246.485 90.4391 247.145 90.9499 247.825C105.706 266.628 125.806 281.683 148.747 288.738C149.565 288.993 149.565 288.993 150.4 289.252C152.283 289.801 154.173 290.274 156.081 290.73C157.272 291.031 157.272 291.031 158.487 291.337C169.191 293.649 180.096 293.065 190.981 292.903C194.005 292.858 197.029 292.817 200.053 292.792C201.923 292.776 203.792 292.75 205.661 292.712C213.504 292.646 213.504 292.646 216.919 295.076C219.823 298.215 220.859 300.747 220.787 305.074C220.337 307.981 218.999 310.397 216.919 312.458C213.307 314.247 210.011 315.089 205.99 315.474C205.429 315.532 204.868 315.589 204.29 315.648C197.27 316.305 190.242 316.365 183.195 316.351C182.5 316.351 181.804 316.351 181.087 316.351C167.439 316.327 154.092 315.467 141.128 310.817C139.259 310.142 139.259 310.142 136.525 310.285C134.638 321.401 133.158 332.323 132.904 343.602C125.027 345.902 117.864 345.951 109.773 345.676C102.389 345.445 96.6809 345.786 90.6245 350.437C86.9893 353.986 86.0194 356.975 85.6451 361.935C86.025 367.538 88.4166 372.191 92.3446 376.194C99.7776 381.944 108.276 383.947 117.513 383.754C118.338 383.743 119.163 383.731 120.013 383.72C142.746 383.202 162.201 372.2 179.82 358.58C182.933 356.227 185.592 356.286 189.397 356.639C193.483 358.104 195.548 360.358 197.545 364.153C198.569 367.735 198.466 370.673 196.957 374.067C193.546 380.186 186.966 383.438 181.187 387.032C180.162 387.67 179.142 388.315 178.123 388.962C166.689 396.063 153.563 402.461 140.147 404.441C150.595 420.739 168.073 431.548 185.776 438.482C186.254 438.482 186.732 438.482 187.224 438.482C187.234 437.244 187.234 437.244 187.245 435.981C187.274 432.897 187.321 429.815 187.375 426.732C187.395 425.401 187.41 424.071 187.421 422.74C187.436 420.82 187.47 418.9 187.507 416.98C187.508 416.392 187.509 415.804 187.51 415.198C187.638 410.139 189.045 406.241 192.656 402.63C196.337 401.052 199.933 400.954 203.882 401.544C208.052 403.536 209.12 406.224 211.125 410.235C211.214 412.378 211.26 414.505 211.274 416.649C211.281 417.324 211.288 417.999 211.296 418.695C211.319 420.886 211.337 423.078 211.354 425.269C211.368 426.62 211.381 427.97 211.395 429.32C211.445 434.336 211.488 439.351 211.533 444.366C211.689 461.172 211.689 461.172 211.849 478.316C235.033 478.316 258.217 478.316 282.104 478.316C282.227 458.079 282.227 458.079 282.32 437.841C282.352 433.913 282.352 433.913 282.372 432.07C282.382 430.792 282.387 429.514 282.387 428.236C282.389 426.292 282.409 424.349 282.433 422.405C282.429 421.842 282.425 421.279 282.422 420.7C282.497 416.705 283.473 413.566 285.725 410.235C289.348 407.408 293.632 407.57 298.038 408.062C301.562 409.487 303.67 412.066 305.344 415.447C306.171 417.988 306.241 420.23 306.305 422.901C306.326 423.665 306.326 423.665 306.347 424.445C306.39 426.06 306.424 427.676 306.457 429.292C306.485 430.392 306.513 431.493 306.542 432.593C306.612 435.28 306.673 437.967 306.729 440.654C312.889 443.08 319.069 444.479 325.56 445.724C326.144 445.837 326.729 445.949 327.331 446.065C350.177 450.259 375.32 449.133 397.263 441.379C397.717 441.224 398.172 441.069 398.64 440.91C410.261 436.911 419.73 430.414 428.407 421.823C429.342 420.954 429.342 420.954 430.297 420.066C440.608 410.283 447.589 397.709 451.825 384.189C452.342 382.609 452.953 381.085 453.575 379.544C454.751 376.997 454.751 376.997 453.756 374.746C453.396 374.946 453.036 375.147 452.665 375.353C445.024 379.576 437.627 383.418 429.131 385.61C428.601 385.75 428.07 385.89 427.524 386.034C406.803 391.314 386.017 388.424 366.844 379.091C366.024 378.697 365.204 378.303 364.36 377.897C348.366 369.728 334.434 357.099 323.707 342.816C323.019 341.902 322.325 340.991 321.625 340.084C312.021 327.602 296.059 304.99 296.349 288.707C296.753 286.018 298.085 285.092 300.211 283.487C303.194 281.332 306.305 279.396 309.448 277.484C315.439 273.826 320.998 270.032 326.284 265.381C327.171 264.613 327.171 264.613 328.075 263.83C329.922 262.203 331.728 260.541 333.527 258.862C334.519 257.955 334.519 257.955 335.53 257.029C358.873 235.09 372.509 201.807 373.611 169.995C373.851 159.403 373.367 149.018 371.189 138.633C370.98 137.614 370.98 137.614 370.766 136.575C369.363 129.854 367.956 123.288 365.395 116.905C365.048 115.98 364.7 115.055 364.354 114.129C358.491 98.9824 349.668 85.4451 338.608 73.5703C337.214 72.0709 335.89 70.5301 334.568 68.9672C332.022 66.0634 329.26 63.5914 326.284 61.136C325.923 60.8299 325.561 60.5237 325.188 60.2084C299.475 38.4999 264.577 24.1091 230.681 23.4738C229.596 23.4516 229.596 23.4516 228.49 23.4289C218.04 23.2485 207.687 23.1602 197.364 24.9224Z" fill="#0C2F3F"/>
<path d="M262.921 84.8629C264.382 84.856 265.842 84.8335 267.303 84.8106C273.098 84.7876 278.069 85.3319 283.552 87.2097C284.38 87.4656 285.207 87.7214 286.059 87.9849C298.073 92.333 310.663 102.07 316.727 113.589C317.013 114.205 317.299 114.821 317.593 115.456C317.968 116.237 318.344 117.017 318.73 117.822C325.898 133.541 326.071 150.242 320.4 166.472C314.372 181.124 304.392 192.573 289.791 199.124C281.733 202.371 274.713 203.342 266.034 203.32C265.147 203.331 264.259 203.343 263.345 203.355C254.963 203.359 246.747 202.307 239.281 198.295C238.8 198.044 238.318 197.792 237.822 197.533C223.261 189.704 213.287 177.465 208.228 161.81C203.705 146.336 205.242 129.805 212.574 115.456C221.435 100 233.922 90.5618 250.96 85.7612C251.384 85.6323 251.808 85.5034 252.245 85.3706C255.734 84.6484 259.371 84.8732 262.921 84.8629Z" fill="#F6FAF7"/>
<path d="M132.315 85.5801C132.964 85.5652 133.612 85.5502 134.28 85.5348C144.786 85.4742 154.238 89.9905 161.805 97.1262C169.215 104.483 172.712 114.475 172.965 124.827C172.86 136.315 168.341 147.039 160.426 155.291C150.499 164.012 140.2 166.034 127.439 165.561C117.876 164.863 108.841 159.392 102.484 152.394C95.0347 142.298 91.5571 130.729 93.2924 118.186C93.6255 116.757 94.0445 115.397 94.5175 114.008C94.7117 113.383 94.9059 112.759 95.1059 112.115C96.6796 107.374 98.7564 103.502 101.76 99.5223C102.079 99.0761 102.397 98.6298 102.725 98.17C109.822 88.9664 121.229 85.6426 132.315 85.5801Z" fill="#F6FAF7"/>
<path d="M275.585 32.1651C276.256 32.4125 276.927 32.6599 277.618 32.9148C296.849 40.0923 313.036 49.8046 328.457 63.3088C329.392 64.0792 330.327 64.8489 331.264 65.6174C333.48 67.5241 335.361 69.6488 337.247 71.8784C338.16 72.9398 339.098 73.979 340.06 74.9962C351.145 86.7601 360.36 101.516 365.395 116.905C365.755 117.959 365.755 117.959 366.122 119.035C366.908 121.45 367.611 123.874 368.292 126.32C368.449 126.877 368.607 127.434 368.769 128.008C370.675 134.874 372.246 141.573 372.321 148.728C372.331 149.254 372.342 149.78 372.353 150.322C372.282 153.977 371.318 156.109 369.016 158.913C366.672 160.476 365.944 160.892 363.222 160.361C360.37 157.667 360.175 155.38 360.008 151.534C359.715 144.79 357.849 138.57 355.979 132.115C355.775 131.378 355.571 130.641 355.36 129.882C350.944 114.389 342.638 100.022 332.079 87.934C331.77 87.5774 331.462 87.2207 331.145 86.8533C326.565 81.5769 321.689 76.9958 316.145 72.7243C315.398 72.1277 314.651 71.5311 313.881 70.9165C299.683 59.63 283.154 51.5954 265.588 47.0647C264.097 46.6765 262.619 46.2575 261.14 45.8272C234.153 38.3741 205.289 40.3372 178.533 47.3748C177.847 47.5506 177.16 47.7263 176.453 47.9074C163.922 51.1341 152.746 56.221 141.233 62.03C140.396 62.452 139.56 62.874 138.698 63.3088C137.712 63.8073 137.712 63.8073 136.706 64.316C133.408 65.8981 130.844 66.7803 127.11 66.2059C125.116 64.9054 123.831 63.995 122.764 61.8602C122.36 57.6597 123.085 55.7412 125.661 52.4447C144.311 37.9527 168.671 30.3093 191.525 26.0541C192.013 25.963 192.501 25.8719 193.004 25.778C219.89 20.8276 249.832 22.5795 275.585 32.1651Z" fill="#A4F5AF"/>
<path d="M240.82 106.041C244.756 108.027 247.603 110.353 250.663 113.499C251.303 114.143 251.303 114.143 251.957 114.801C253.305 116.161 254.645 117.529 255.985 118.897C256.903 119.826 257.822 120.755 258.742 121.683C260.982 123.948 263.216 126.219 265.445 128.493C266.067 127.865 266.688 127.236 267.328 126.588C269.635 124.255 271.947 121.926 274.26 119.599C275.26 118.591 276.259 117.583 277.257 116.572C278.692 115.12 280.131 113.672 281.572 112.225C282.239 111.547 282.239 111.547 282.919 110.856C283.339 110.435 283.759 110.015 284.192 109.582C284.559 109.212 284.926 108.842 285.304 108.461C288.119 106.073 290.65 105.723 294.238 105.812C297.681 106.297 299.67 108.324 301.885 110.839C303.97 113.773 304.31 116.249 303.832 119.802C302.135 123.007 299.874 125.238 297.313 127.769C296.695 128.387 296.077 129.006 295.44 129.643C290.753 134.329 286.066 139.016 281.379 143.703C285.36 148.564 289.816 152.921 294.281 157.328C295.796 158.825 297.31 160.324 298.821 161.824C299.488 162.482 300.154 163.14 300.841 163.818C303.306 166.397 303.361 168.22 303.306 171.672C302.988 174.443 302.037 176.376 300.211 178.468C296.889 181.059 294.02 182.016 289.779 181.752C287.657 181.316 286.862 180.772 285.292 179.311C284.796 178.852 284.3 178.393 283.788 177.92C283.232 177.384 282.677 176.848 282.104 176.295C281.458 175.673 280.812 175.05 280.146 174.408C278.369 172.681 276.611 170.937 274.859 169.185C273.76 168.087 272.656 166.996 271.551 165.905C270.851 165.207 270.151 164.509 269.452 163.81C268.821 163.182 268.19 162.555 267.541 161.908C266.17 160.361 266.17 160.361 266.17 158.913C261.038 163.199 256.377 167.922 251.684 172.674C249.666 174.713 247.653 176.726 245.483 178.604C245.078 178.958 244.674 179.311 244.258 179.676C241.449 181.819 239.298 182.507 235.75 182.089C231.813 180.324 229.917 178.703 227.783 174.847C226.867 172.097 226.455 169.717 227.059 166.88C227.912 165.6 227.912 165.6 229.099 164.308C229.559 163.807 230.019 163.306 230.493 162.789C233.752 159.396 237.072 156.068 240.413 152.756C241.158 152.015 241.902 151.274 242.647 150.533C244.45 148.737 246.256 146.944 248.063 145.151C247.093 142.276 245.901 140.551 243.748 138.427C243.181 137.863 242.614 137.3 242.03 136.719C241.436 136.141 240.843 135.562 240.232 134.966C239.647 134.385 239.062 133.804 238.459 133.205C236.258 131.032 234.095 128.906 231.674 126.976C229.063 124.879 227.326 122.906 226.779 119.513C226.599 115.382 227.142 112.857 229.956 109.662C233.401 106.627 236.152 105.2 240.82 106.041Z" fill="#0C2F3F"/>
<path d="M302.378 311.496C304.279 311.807 304.752 312.463 306.005 313.907C306.845 315.354 306.845 315.354 307.654 317.013C307.962 317.63 308.27 318.246 308.587 318.881C308.915 319.54 309.243 320.199 309.581 320.878C313.333 328.228 317.675 334.868 322.663 341.429C323.177 342.111 323.69 342.792 324.219 343.494C341.311 365.47 363.45 380.915 390.745 387.058C391.612 387.261 391.612 387.261 392.498 387.467C414.441 392.279 435.251 384.701 454.48 374.746C453.154 381.981 450.844 386.174 445.065 390.68C444.005 391.656 442.948 392.637 441.896 393.622C432.257 402.112 421.076 404.577 408.503 404.575C407.065 404.577 405.627 404.59 404.189 404.603C373.452 404.65 346.524 389.039 325.107 368.001C314.801 357.633 307.169 345.43 300.227 332.646C299.533 331.376 298.823 330.114 298.111 328.853C295.809 324.599 294.101 320.968 295.141 316.08C297.086 312.02 297.913 311.661 302.378 311.496Z" fill="#A4F5AF"/>
<path d="M371.914 147.324C372.153 147.324 372.392 147.324 372.638 147.324C377.462 178.388 368.821 213.675 350.643 239.253C346.496 244.87 341.951 250.176 337.148 255.241C336.168 256.279 336.168 256.279 335.168 257.337C326.102 266.764 315.863 273.69 304.66 280.381C303.423 281.125 302.202 281.894 300.986 282.673C299.187 283.65 297.964 283.627 295.973 283.227C290.169 281.497 284.939 278.891 279.931 275.52C282.708 273.238 285.837 271.655 288.984 269.953C318.543 253.712 345.155 226.632 354.92 193.632C355.645 191.061 356.334 188.482 357.002 185.895C357.347 184.574 357.72 183.261 358.101 181.951C360.215 174.465 360.86 166.618 361.774 158.913C362.567 159.067 363.361 159.221 364.179 159.38C366.939 159.959 366.939 159.959 368.926 157.962C370.934 155.423 371.312 154.028 371.597 150.855C371.688 149.866 371.688 149.866 371.781 148.858C371.824 148.352 371.868 147.846 371.914 147.324Z" fill="#23CA97"/>
<path d="M136.525 310.285C139.77 310.503 142.77 310.786 145.791 312.045C149.644 313.614 153.662 314.108 157.755 314.722C158.526 314.844 159.297 314.966 160.091 315.092C165.02 315.856 169.939 316.416 174.912 316.804C171.868 333.408 162.615 345.567 148.982 354.988C139.163 361.501 128.585 364.005 116.97 364.244C116.321 364.266 115.671 364.288 115.002 364.311C111.863 364.312 109.69 364.198 107.192 362.184C104.927 359.777 103.713 358.26 103.616 354.964C103.587 354.429 103.558 353.894 103.528 353.343C104.144 350.644 105.326 348.811 107.554 347.223C110.073 346.538 112.559 346.454 115.159 346.363C116.587 346.277 118.015 346.185 119.443 346.089C120.134 346.043 120.825 345.997 121.537 345.95C125.424 345.601 129.153 344.664 132.904 343.602C132.932 342.361 132.932 342.361 132.96 341.095C133.293 330.679 134.782 320.551 136.525 310.285Z" fill="#A4F5AF"/>
<path d="M298.038 403.716C300.26 404.818 302.461 405.956 304.658 407.106C305.374 407.48 306.09 407.855 306.828 408.24C308.32 409.021 309.812 409.802 311.304 410.583C313.398 411.678 315.495 412.768 317.593 413.856C318.09 414.116 318.588 414.376 319.1 414.644C339.158 424.938 360.924 430.022 382.778 434.86C383.42 435.008 384.063 435.157 384.726 435.309C389.294 436.311 393.772 436.612 398.44 436.761C399.167 436.789 399.895 436.817 400.644 436.846C402.414 436.914 404.184 436.976 405.954 437.033C396.423 444.599 382.082 445.624 370.465 447.173C369.65 447.3 368.836 447.426 367.997 447.557C348.128 450.154 326.409 447.471 307.453 441.379C306.076 440.002 306.618 437.545 306.602 435.717C306.585 434.69 306.567 433.662 306.549 432.635C306.524 431.016 306.503 429.397 306.493 427.777C306.443 420.836 306.315 415.474 301.614 409.918C300.199 408.642 300.199 408.642 298.038 408.062C298.038 406.628 298.038 405.194 298.038 403.716Z" fill="#ECD18C"/>
<path d="M120.591 102.419C122.805 103.953 124.54 105.814 126.34 107.806C126.817 108.309 127.293 108.812 127.785 109.33C128.662 110.258 129.534 111.192 130.397 112.133C131.212 113.019 132.053 113.881 132.904 114.732C133.481 114.094 134.058 113.457 134.652 112.8C135.427 111.95 136.203 111.1 136.978 110.251C137.356 109.832 137.734 109.413 138.124 108.982C144.376 102.151 144.376 102.151 147.505 101.24C151.057 101.364 152.889 102.052 155.356 104.592C157.082 107.181 157.533 108.717 157.524 111.801C155.869 116.882 150.714 120.828 146.665 124.148C145.948 124.506 145.948 124.506 145.217 124.872C144.978 125.589 144.739 126.306 144.492 127.045C145.083 127.281 145.083 127.281 145.686 127.523C147.959 128.818 149.653 130.575 151.463 132.431C151.818 132.787 152.173 133.142 152.538 133.508C156.717 137.738 156.717 137.738 157.076 141.394C157.001 144.534 155.928 146.348 153.908 148.773C151.387 150.453 150.027 150.743 147.056 150.685C141.46 149.273 137.126 142.959 133.628 138.633C131.162 139.053 130.004 139.829 128.281 141.621C127.839 142.073 127.398 142.524 126.943 142.99C126.49 143.464 126.037 143.939 125.571 144.427C124.665 145.364 123.758 146.3 122.849 147.234C122.45 147.65 122.051 148.067 121.641 148.496C119.579 150.463 117.614 150.466 114.823 150.425C112.458 150.098 111.312 149.049 109.727 147.324C108.25 144.651 107.908 142.385 108.279 139.357C110.946 134.343 115.384 130.441 119.867 127.045C118.916 124.935 117.903 123.463 116.243 121.856C115.826 121.447 115.409 121.038 114.98 120.617C114.546 120.199 114.112 119.78 113.665 119.349C112.803 118.512 111.942 117.672 111.082 116.831C110.701 116.463 110.32 116.094 109.927 115.715C108.065 113.734 107.956 111.728 107.97 109.062C108.531 106.202 110.503 104.315 112.624 102.419C115.23 101.116 117.861 101.609 120.591 102.419Z" fill="#0C2F3F"/>
<path d="M184.327 386.334C185.566 387.509 186.767 388.723 187.949 389.955C188.726 390.631 189.514 391.296 190.311 391.95C190.718 392.285 191.124 392.619 191.543 392.964C192.382 393.649 193.223 394.332 194.067 395.013C196.185 396.764 197.856 398.198 198.813 400.819C198.051 400.984 197.289 401.148 196.504 401.317C192.849 402.373 190.932 404.577 188.956 407.774C187.682 410.887 187.604 413.508 187.578 416.838C187.558 417.769 187.558 417.769 187.539 418.72C187.499 420.69 187.475 422.66 187.451 424.63C187.427 425.971 187.402 427.312 187.376 428.653C187.314 431.929 187.266 435.205 187.224 438.482C186.197 438.148 185.171 437.813 184.146 437.476C183.574 437.29 183.003 437.103 182.414 436.911C179.839 436.003 177.43 434.833 175.002 433.593C174.503 433.339 174.003 433.086 173.488 432.825C161.057 426.422 147.967 417.006 140.147 405.165C140.147 404.926 140.147 404.687 140.147 404.441C140.781 404.316 141.416 404.191 142.07 404.062C155.332 401.124 170.071 395.793 180.83 387.259C182.154 386.334 182.154 386.334 184.327 386.334Z" fill="#ECD18C"/>
<path d="M449.411 385.61C449.65 385.61 449.889 385.61 450.135 385.61C449.765 390.004 448.383 393.43 446.468 397.379C446.175 397.987 445.883 398.596 445.581 399.222C441.728 407.031 436.54 413.35 430.579 419.651C429.985 420.3 429.39 420.95 428.777 421.62C423.686 426.99 418.111 431.111 411.748 434.86C411.298 435.14 410.847 435.42 410.383 435.708C406.438 437.959 403.185 438.115 398.712 437.803C398.029 437.763 397.346 437.724 396.643 437.683C386.008 436.916 375.545 434.433 365.395 431.239C365.395 431 365.395 430.761 365.395 430.515C365.831 430.406 366.267 430.296 366.716 430.184C373.051 428.533 379.192 426.408 385.358 424.222C385.903 424.03 386.448 423.837 387.009 423.639C400.079 419.004 413.02 414.145 424.078 405.544C427.546 402.871 431.161 400.372 434.866 398.041C439.869 394.87 443.848 391.418 447.903 387.149C448.4 386.641 448.898 386.133 449.411 385.61Z" fill="#23CA97"/>
<path d="M143.044 441.379C145.382 442.493 147.38 443.849 149.469 445.383C160.737 453.561 174.036 459.435 187.224 463.831C187.224 468.611 187.224 473.391 187.224 478.316C181.571 478.333 175.917 478.346 170.264 478.354C167.639 478.358 165.014 478.363 162.389 478.371C159.858 478.379 157.327 478.383 154.796 478.385C153.356 478.387 151.916 478.393 150.476 478.399C149.606 478.399 148.736 478.399 147.839 478.399C146.684 478.401 146.684 478.401 145.505 478.404C143.768 478.316 143.768 478.316 143.044 477.592C142.976 476.458 142.959 475.321 142.961 474.186C142.962 473.461 142.962 472.736 142.962 471.989C142.965 471.2 142.969 470.412 142.973 469.6C142.974 468.797 142.975 467.994 142.976 467.167C142.98 464.591 142.989 462.016 142.998 459.44C143.002 457.699 143.005 455.957 143.008 454.216C143.016 449.937 143.028 445.658 143.044 441.379Z" fill="#ECD18C"/>
<path d="M209.677 405.889C214.341 407.38 216.258 410.791 219.092 414.581C219.607 415.214 220.121 415.847 220.651 416.499C224.474 421.354 226.367 425.975 227.783 431.963C227.905 432.405 228.026 432.847 228.151 433.302C229.382 438.108 229.418 442.733 229.373 447.674C229.371 448.532 229.369 449.391 229.367 450.276C229.359 452.999 229.341 455.722 229.323 458.444C229.315 460.299 229.309 462.153 229.303 464.008C229.288 468.536 229.26 473.064 229.232 477.592C223.496 477.592 217.76 477.592 211.849 477.592C211.835 475.574 211.821 473.557 211.806 471.478C211.757 464.809 211.701 458.14 211.641 451.47C211.605 447.427 211.571 443.384 211.544 439.341C211.517 435.438 211.484 431.536 211.445 427.634C211.432 426.145 211.421 424.657 211.412 423.169C211.4 421.083 211.379 418.997 211.356 416.911C211.355 416.297 211.353 415.683 211.351 415.05C211.304 411.717 210.945 409.027 209.677 405.889Z" fill="#A4F5AF"/>
<path d="M104.657 177.744C108.403 179.159 111.563 182.865 113.349 186.435C113.546 189.63 113.516 192.831 113.53 196.032C113.545 196.921 113.559 197.811 113.575 198.728C113.58 200.02 113.58 200.02 113.586 201.339C113.593 202.126 113.6 202.914 113.607 203.725C113.173 207.529 111.593 210.333 108.641 212.735C108.002 213.269 108.002 213.269 107.351 213.813C104.189 216.019 100.38 215.815 96.6903 215.406C93.1452 213.699 91.3914 211.547 89.4476 208.163C88.1842 204.373 88.5281 200.361 88.497 196.394C88.476 195.513 88.455 194.633 88.4333 193.726C88.3978 188.714 88.5239 185.392 91.6204 181.365C95.8768 177.514 99.0444 177.311 104.657 177.744Z" fill="#0C2F3F"/>
<path d="M298.038 403.716C300.26 404.818 302.461 405.956 304.658 407.106C305.374 407.48 306.09 407.855 306.828 408.24C308.32 409.021 309.812 409.802 311.304 410.583C313.398 411.678 315.495 412.768 317.593 413.856C318.09 414.116 318.588 414.376 319.1 414.644C331.879 421.202 345.437 425.751 359.308 429.324C361.369 429.876 363.385 430.526 365.395 431.239C365.395 431.478 365.395 431.717 365.395 431.963C346.986 434.986 324.623 435.645 306.729 429.79C306.71 428.969 306.692 428.147 306.673 427.301C306.443 420.431 306.244 415.39 301.614 409.918C300.199 408.642 300.199 408.642 298.038 408.062C298.038 406.628 298.038 405.194 298.038 403.716Z" fill="#F6FAF7"/>
<path d="M184.327 386.334C185.566 387.509 186.767 388.723 187.949 389.955C188.726 390.631 189.514 391.296 190.311 391.95C190.717 392.285 191.124 392.619 191.543 392.964C192.382 393.649 193.223 394.332 194.067 395.013C196.185 396.764 197.856 398.198 198.813 400.819C198.051 400.984 197.289 401.148 196.504 401.317C192.833 402.378 190.899 404.585 188.964 407.83C187.81 410.563 187.55 413.017 187.451 415.939C187.426 416.437 187.401 416.936 187.376 417.449C187.316 418.666 187.269 419.882 187.224 421.099C183.182 420.016 180.1 418.03 176.677 415.712C176.108 415.329 175.538 414.946 174.951 414.551C171.306 412.058 167.794 409.451 164.41 406.614C164.024 406.292 163.637 405.97 163.24 405.639C161.303 403.963 159.913 402.499 158.978 400.095C159.411 399.901 159.844 399.707 160.29 399.507C161.881 398.745 161.881 398.745 162.903 397.589C164.787 395.753 167.216 394.828 169.57 393.713C173.585 391.771 177.324 389.74 180.924 387.081C182.154 386.334 182.154 386.334 184.327 386.334Z" fill="#F6FAF7"/>
<path d="M136.525 310.285C139.77 310.503 142.77 310.786 145.791 312.045C149.644 313.614 153.661 314.108 157.755 314.722C158.526 314.844 159.297 314.966 160.091 315.092C165.02 315.856 169.939 316.416 174.912 316.804C174.032 321.484 172.653 325.556 170.566 329.841C168.946 328.221 168.51 326.874 167.669 324.771C165.994 323.096 165.524 323.039 163.233 322.915C159.587 323.008 157.869 324.366 155.32 326.856C153.905 328.395 152.547 329.971 151.192 331.561C146.279 337.208 140.676 341.187 133.628 343.602C133.166 332.225 134.539 321.48 136.525 310.285Z" fill="#F6FAF7"/>
<path d="M161.15 452.967C164.175 454.263 167.195 455.562 170.207 456.885C170.922 457.199 171.638 457.512 172.375 457.835C173.858 458.484 175.341 459.135 176.823 459.787C177.537 460.099 178.252 460.411 178.988 460.733C179.631 461.015 180.274 461.297 180.937 461.588C182.996 462.431 185.113 463.127 187.224 463.831C187.224 468.611 187.224 473.391 187.224 478.316C172.884 478.316 158.543 478.316 143.768 478.316C143.768 478.077 143.768 477.838 143.768 477.592C149.504 477.592 155.24 477.592 161.15 477.592C161.15 469.466 161.15 461.34 161.15 452.967Z" fill="#23CA97"/>
</svg>
