<svg width="923" height="216" viewBox="0 0 923 216" fill="none" xmlns="http://www.w3.org/2000/svg">
<path d="M742.006 142.8C731.206 142.8 721.906 141.06 714.106 137.58C706.426 134.1 700.486 129.18 696.286 122.82C692.206 116.34 690.166 108.6 690.166 99.6C690.166 90.48 692.146 82.74 696.106 76.38C700.066 69.9 705.766 64.98 713.206 61.62C720.646 58.14 729.646 56.4 740.206 56.4C750.646 56.4 759.406 58.02 766.486 61.26C773.686 64.38 779.086 69.06 782.686 75.3C786.406 81.42 788.266 88.98 788.266 97.98C788.266 99.54 788.266 101.1 788.266 102.66C788.266 104.1 788.146 105.48 787.906 106.8H709.246V89.88H755.326L748.486 98.16C749.206 97.08 749.806 95.94 750.286 94.74C750.766 93.54 751.006 92.52 751.006 91.68C751.006 88.8 750.526 86.34 749.566 84.3C748.606 82.26 747.226 80.7 745.426 79.62C743.746 78.54 741.706 78 739.306 78C736.066 78 733.426 78.78 731.386 80.34C729.346 81.78 727.846 84.12 726.886 87.36C725.926 90.48 725.446 94.56 725.446 99.6C725.326 103.8 725.806 107.4 726.886 110.4C728.086 113.28 729.766 115.5 731.926 117.06C734.206 118.62 736.966 119.4 740.206 119.4C744.526 119.4 748.126 118.74 751.006 117.42C753.886 115.98 756.046 113.94 757.486 111.3L789.526 116.34C785.086 125.22 778.906 131.88 770.986 136.32C763.186 140.64 753.526 142.8 742.006 142.8Z" fill="#2DE1BB"/>
<path d="M635.818 99.6C635.818 103.2 636.658 106.26 638.338 108.78C640.018 111.18 642.238 113.04 644.998 114.36C647.878 115.56 650.938 116.16 654.178 116.16C656.818 116.16 659.398 115.8 661.918 115.08C664.558 114.36 667.078 113.22 669.478 111.66C671.878 110.1 673.978 108.06 675.778 105.54V137.22C672.898 138.78 669.598 140.1 665.878 141.18C662.278 142.26 657.178 142.8 650.578 142.8C640.738 142.8 631.978 141.06 624.298 137.58C616.618 134.1 610.558 129.12 606.118 122.64C601.798 116.16 599.638 108.48 599.638 99.6C599.638 90.6 601.798 82.92 606.118 76.56C610.558 70.08 616.618 65.1 624.298 61.62C631.978 58.14 640.738 56.4 650.578 56.4C657.178 56.4 662.278 56.94 665.878 58.02C669.598 59.1 672.898 60.3 675.778 61.62V93.48C673.978 90.84 671.758 88.8 669.118 87.36C666.478 85.8 663.838 84.72 661.198 84.12C658.558 83.4 656.218 83.04 654.178 83.04C650.938 83.04 647.878 83.82 644.998 85.38C642.238 86.82 640.018 88.8 638.338 91.32C636.658 93.72 635.818 96.48 635.818 99.6Z" fill="#2DE1BB"/>
<path d="M549.034 29.04C549.034 23.76 550.894 19.5 554.614 16.26C558.454 13.02 563.074 11.4 568.474 11.4C573.874 11.4 578.434 13.02 582.154 16.26C585.994 19.5 587.914 23.76 587.914 29.04C587.914 34.32 585.994 38.58 582.154 41.82C578.434 45.06 573.874 46.68 568.474 46.68C563.074 46.68 558.454 45.06 554.614 41.82C550.894 38.58 549.034 34.32 549.034 29.04ZM551.554 58.2H585.214V141H551.554V58.2Z" fill="#2DE1BB"/>
<path d="M479.65 108.6C479.65 112.32 480.19 115.26 481.27 117.42C482.35 119.46 484.69 120.48 488.29 120.48C490.45 120.48 492.25 120.06 493.69 119.22C495.25 118.38 496.45 117.12 497.29 115.44C498.13 113.64 498.55 111.36 498.55 108.6V58.2H533.65V141H498.55V128.94C496.27 133.14 493.03 136.56 488.83 139.2C484.75 141.72 479.47 142.98 472.99 142.98C461.71 142.98 453.85 140.34 449.41 135.06C444.97 129.66 442.75 122.04 442.75 112.2V58.2H479.65V108.6Z" fill="#2DE1BB"/>
<path d="M388.722 29.04C388.722 23.76 390.582 19.5 394.302 16.26C398.142 13.02 402.762 11.4 408.162 11.4C413.562 11.4 418.122 13.02 421.842 16.26C425.682 19.5 427.602 23.76 427.602 29.04C427.602 34.32 425.682 38.58 421.842 41.82C418.122 45.06 413.562 46.68 408.162 46.68C402.762 46.68 398.142 45.06 394.302 41.82C390.582 38.58 388.722 34.32 388.722 29.04ZM374.682 150.9C375.882 152.22 377.142 153.3 378.462 154.14C379.662 154.98 381.102 155.4 382.782 155.4C384.582 155.4 386.142 154.98 387.462 154.14C388.782 153.42 389.742 152.34 390.342 150.9C391.062 149.46 391.422 147.66 391.422 145.5V58.2H424.722V155.4C424.722 161.28 423.402 166.5 420.762 171.06C418.242 175.74 414.342 179.4 409.062 182.04C403.782 184.68 397.122 186 389.082 186C384.162 186 379.962 185.4 376.482 184.2C372.882 183 369.942 181.56 367.662 179.88C365.382 178.32 363.462 176.94 361.902 175.74L374.682 150.9Z" fill="#2DE1BB"/>
<path d="M276.904 99.6C276.904 90.6 279.064 82.86 283.384 76.38C287.704 69.9 293.644 64.92 301.204 61.44C308.764 57.96 317.344 56.22 326.944 56.22C336.544 56.22 345.124 57.96 352.684 61.44C360.244 64.92 366.184 69.9 370.504 76.38C374.824 82.86 376.984 90.6 376.984 99.6C376.984 108.48 374.824 116.16 370.504 122.64C366.184 129.12 360.244 134.1 352.684 137.58C345.124 141.06 336.544 142.8 326.944 142.8C317.344 142.8 308.764 141.06 301.204 137.58C293.644 134.1 287.704 129.12 283.384 122.64C279.064 116.16 276.904 108.48 276.904 99.6ZM313.084 99.6C313.084 102.96 313.744 105.78 315.064 108.06C316.384 110.34 318.064 112.08 320.104 113.28C322.264 114.36 324.544 114.9 326.944 114.9C329.344 114.9 331.564 114.36 333.604 113.28C335.764 112.08 337.504 110.34 338.824 108.06C340.144 105.78 340.804 102.96 340.804 99.6C340.804 96.24 340.144 93.42 338.824 91.14C337.504 88.86 335.764 87.12 333.604 85.92C331.564 84.72 329.344 84.12 326.944 84.12C324.544 84.12 322.264 84.72 320.104 85.92C318.064 87.12 316.384 88.86 315.064 91.14C313.744 93.42 313.084 96.24 313.084 99.6Z" fill="#0A303F"/>
<path d="M225.52 90.6C225.52 86.88 224.98 84 223.9 81.96C222.82 79.8 220.48 78.72 216.88 78.72C214.84 78.72 213.04 79.14 211.48 79.98C209.92 80.82 208.72 82.14 207.88 83.94C207.04 85.62 206.62 87.84 206.62 90.6V141H171.52V58.2H206.62V70.26C208.9 66.06 212.08 62.7 216.16 60.18C220.36 57.54 225.7 56.22 232.18 56.22C243.46 56.22 251.32 58.92 255.76 64.32C260.2 69.6 262.42 77.16 262.42 87V141H225.52V90.6Z" fill="#0A303F"/>
<path d="M117.316 29.04C117.316 23.76 119.176 19.5 122.896 16.26C126.736 13.02 131.356 11.4 136.756 11.4C142.156 11.4 146.716 13.02 150.436 16.26C154.276 19.5 156.196 23.76 156.196 29.04C156.196 34.32 154.276 38.58 150.436 41.82C146.716 45.06 142.156 46.68 136.756 46.68C131.356 46.68 126.736 45.06 122.896 41.82C119.176 38.58 117.316 34.32 117.316 29.04ZM119.836 58.2H153.496V141H119.836V58.2Z" fill="#0A303F"/>
<path d="M67 0.599976H102.1V141H67V0.599976ZM0.400024 99.6C0.400024 90 2.26002 82.02 5.98002 75.66C9.82002 69.3 14.68 64.5 20.56 61.26C26.44 58.02 32.5 56.4 38.74 56.4C45.7 56.4 51.88 58.14 57.28 61.62C62.8 65.1 67.18 70.08 70.42 76.56C73.66 82.92 75.28 90.6 75.28 99.6C75.28 108.48 73.66 116.16 70.42 122.64C67.18 129.12 62.8 134.1 57.28 137.58C51.88 141.06 45.7 142.8 38.74 142.8C32.5 142.8 26.44 141.18 20.56 137.94C14.68 134.7 9.82002 129.9 5.98002 123.54C2.26002 117.06 0.400024 109.08 0.400024 99.6ZM37.48 99.6C37.48 102.6 38.14 105.36 39.46 107.88C40.78 110.28 42.58 112.2 44.86 113.64C47.14 115.08 49.6 115.8 52.24 115.8C54.64 115.8 56.98 115.14 59.26 113.82C61.54 112.5 63.4 110.64 64.84 108.24C66.28 105.84 67 102.96 67 99.6C67 96.24 66.28 93.36 64.84 90.96C63.4 88.56 61.54 86.7 59.26 85.38C56.98 84.06 54.64 83.4 52.24 83.4C49.6 83.4 47.14 84.12 44.86 85.56C42.58 87 40.78 88.92 39.46 91.32C38.14 93.72 37.48 96.48 37.48 99.6Z" fill="#0A303F"/>
<path d="M896.214 214C890.214 214 885.047 213.033 880.714 211.1C876.447 209.167 873.147 206.433 870.814 202.9C868.547 199.3 867.414 195 867.414 190C867.414 184.933 868.514 180.633 870.714 177.1C872.914 173.5 876.081 170.767 880.214 168.9C884.347 166.967 889.347 166 895.214 166C901.014 166 905.881 166.9 909.814 168.7C913.814 170.433 916.814 173.033 918.814 176.5C920.881 179.9 921.914 184.1 921.914 189.1C921.914 189.967 921.914 190.833 921.914 191.7C921.914 192.5 921.847 193.267 921.714 194H878.014V184.6H903.614L899.814 189.2C900.214 188.6 900.547 187.967 900.814 187.3C901.081 186.633 901.214 186.067 901.214 185.6C901.214 184 900.947 182.633 900.414 181.5C899.881 180.367 899.114 179.5 898.114 178.9C897.181 178.3 896.047 178 894.714 178C892.914 178 891.447 178.433 890.314 179.3C889.181 180.1 888.347 181.4 887.814 183.2C887.281 184.933 887.014 187.2 887.014 190C886.947 192.333 887.214 194.333 887.814 196C888.481 197.6 889.414 198.833 890.614 199.7C891.881 200.567 893.414 201 895.214 201C897.614 201 899.614 200.633 901.214 199.9C902.814 199.1 904.014 197.967 904.814 196.5L922.614 199.3C920.147 204.233 916.714 207.933 912.314 210.4C907.981 212.8 902.614 214 896.214 214Z" fill="#0A303F"/>
<path d="M844.566 167V213H825.566V167H844.566ZM857.466 186.8C856.866 186 856.1 185.333 855.166 184.8C854.233 184.267 853.1 184 851.766 184C850.633 184 849.5 184.333 848.366 185C847.233 185.667 846.3 186.7 845.566 188.1C844.9 189.5 844.566 191.3 844.566 193.5L840.966 185C840.966 181.333 841.733 178.067 843.266 175.2C844.8 172.333 846.8 170.067 849.266 168.4C851.8 166.667 854.466 165.8 857.266 165.8C858.933 165.8 860.533 166.233 862.066 167.1C863.666 167.9 864.766 168.867 865.366 170L857.466 186.8Z" fill="#0A303F"/>
<path d="M761.945 190C761.945 185 763.145 180.7 765.545 177.1C767.945 173.5 771.245 170.733 775.445 168.8C779.645 166.867 784.412 165.9 789.745 165.9C795.079 165.9 799.845 166.867 804.045 168.8C808.245 170.733 811.545 173.5 813.945 177.1C816.345 180.7 817.545 185 817.545 190C817.545 194.933 816.345 199.2 813.945 202.8C811.545 206.4 808.245 209.167 804.045 211.1C799.845 213.033 795.079 214 789.745 214C784.412 214 779.645 213.033 775.445 211.1C771.245 209.167 767.945 206.4 765.545 202.8C763.145 199.2 761.945 194.933 761.945 190ZM782.045 190C782.045 191.867 782.412 193.433 783.145 194.7C783.879 195.967 784.812 196.933 785.945 197.6C787.145 198.2 788.412 198.5 789.745 198.5C791.079 198.5 792.312 198.2 793.445 197.6C794.645 196.933 795.612 195.967 796.345 194.7C797.079 193.433 797.445 191.867 797.445 190C797.445 188.133 797.079 186.567 796.345 185.3C795.612 184.033 794.645 183.067 793.445 182.4C792.312 181.733 791.079 181.4 789.745 181.4C788.412 181.4 787.145 181.733 785.945 182.4C784.812 183.067 783.879 184.033 783.145 185.3C782.412 186.567 782.045 188.133 782.045 190Z" fill="#0A303F"/>
<path d="M722.922 167H758.422V182.5H722.922V167ZM731.422 151H749.922V213H731.422V151Z" fill="#0A303F"/>
<path d="M681.394 194.7C684.594 196.967 687.327 198.633 689.594 199.7C691.927 200.7 693.794 201.333 695.194 201.6C696.66 201.867 697.66 202 698.194 202C699.26 202 699.994 201.8 700.394 201.4C700.86 200.933 701.094 200.367 701.094 199.7C701.094 199.1 700.894 198.567 700.494 198.1C700.16 197.633 699.327 197.133 697.994 196.6C696.66 196 694.56 195.267 691.694 194.4C689.427 193.667 687.294 192.767 685.294 191.7C683.36 190.567 681.794 189.033 680.594 187.1C679.394 185.167 678.794 182.667 678.794 179.6C678.794 176.733 679.56 174.3 681.094 172.3C682.627 170.233 684.76 168.667 687.494 167.6C690.294 166.533 693.594 166 697.394 166C700.194 166 702.794 166.267 705.194 166.8C707.594 167.267 709.927 167.9 712.194 168.7C714.46 169.5 716.727 170.433 718.994 171.5L714.194 184.8C711.927 182.867 709.36 181.333 706.494 180.2C703.694 179 701.36 178.4 699.494 178.4C698.294 178.4 697.494 178.6 697.094 179C696.694 179.4 696.494 179.833 696.494 180.3C696.494 181.167 696.86 181.867 697.594 182.4C698.394 182.867 699.594 183.333 701.194 183.8C702.86 184.267 705.027 185 707.694 186C709.894 186.8 711.96 187.733 713.894 188.8C715.827 189.867 717.394 191.267 718.594 193C719.794 194.733 720.394 197.067 720.394 200C720.394 205.467 718.827 209.433 715.694 211.9C712.56 214.3 708.027 215.5 702.094 215.5C698.627 215.5 695.36 215.2 692.294 214.6C689.227 214.067 686.294 213.267 683.494 212.2C680.694 211.133 677.894 209.867 675.094 208.4L681.394 194.7Z" fill="#0A303F"/>
<path d="M645 204.5C645 201.367 646.1 198.667 648.3 196.4C650.5 194.133 653.333 193 656.8 193C660.333 193 663.167 194.133 665.3 196.4C667.5 198.667 668.6 201.367 668.6 204.5C668.6 207.633 667.5 210.333 665.3 212.6C663.167 214.867 660.333 216 656.8 216C653.333 216 650.5 214.867 648.3 212.6C646.1 210.333 645 207.633 645 204.5Z" fill="#0A303F"/>
</svg>
